<svg id="Capa_1" data-name="Capa 1" xmlns="http://www.w3.org/2000/svg" viewBox="0 0 7.71 16.66"><defs><style>.cls-1{fill:#00b894;}</style></defs><title>Mesa de trabajo 1</title><path class="cls-1" d="M3.71,11.26V16a.59.59,0,0,1-.17.45.6.6,0,0,1-.46.18.67.67,0,0,1-.47-.18A.57.57,0,0,1,2.42,16V11.26H.63L2.49,5H2.17c-.2.7-.37,1.27-.51,1.72S1.41,7.57,1.29,8a5.52,5.52,0,0,0-.23.75.51.51,0,0,1-.54.39l-.14,0A.5.5,0,0,1,0,8.59a.31.31,0,0,1,0-.17c0-.05.07-.21.13-.48s.17-.59.28-1S.69,6.15.83,5.7s.25-.9.41-1.32a1.68,1.68,0,0,1,.58-.87,1.39,1.39,0,0,1,.94-.39H5a1.38,1.38,0,0,1,1,.39,2.13,2.13,0,0,1,.61.87c.12.42.25.86.37,1.32s.26.87.37,1.26.21.72.28,1,.12.43.14.48l0,.14a.49.49,0,0,1-.38.52l-.14,0a.49.49,0,0,1-.53-.39c0-.09-.1-.35-.21-.75s-.24-.83-.38-1.28-.32-1-.52-1.72H5.23l1.86,6.28H5.33V16a.55.55,0,0,1-.2.45.62.62,0,0,1-.46.18.64.64,0,0,1-.47-.18A.62.62,0,0,1,4,16V11.26Z"/><path class="cls-1" d="M3.89,2.73a1.26,1.26,0,0,0,.95-.38,1.33,1.33,0,0,0,.39-1,1.32,1.32,0,0,0-.39-1A1.21,1.21,0,0,0,3.89,0a1.34,1.34,0,0,0-1,.41,1.29,1.29,0,0,0-.4,1,1.3,1.3,0,0,0,.4,1,1.4,1.4,0,0,0,1,.38Z"/></svg>