<svg id="Capa_1" data-name="Capa 1" xmlns="http://www.w3.org/2000/svg" viewBox="0 0 6.56 16.66"><defs><style>.cls-1{fill:#00b894;}</style></defs><title>Mesa de trabajo 3</title><path class="cls-1" d="M1.76,3.08A1.72,1.72,0,0,0,.52,3.6,1.78,1.78,0,0,0,0,4.84V9.12a.53.53,0,0,0,.18.42.54.54,0,0,0,.42.17A.58.58,0,0,0,1,9.54a.62.62,0,0,0,.15-.42V5.29H1.5v10.6a.72.72,0,0,0,.26.54.76.76,0,0,0,.56.23.74.74,0,0,0,.57-.23.72.72,0,0,0,.23-.54V9.75h.35v6.14a.76.76,0,0,0,.23.54.77.77,0,0,0,.59.23.73.73,0,0,0,.54-.23.75.75,0,0,0,.22-.54V5.29h.32V9.12a.58.58,0,0,0,.16.42A.61.61,0,0,0,6,9.71a.52.52,0,0,0,.43-.17.63.63,0,0,0,.16-.42V4.84a1.69,1.69,0,0,0-.51-1.23A1.67,1.67,0,0,0,4.8,3.08Z"/><path class="cls-1" d="M3.29,2.73a1.35,1.35,0,0,0,1-.38,1.34,1.34,0,0,0,.4-1,1.33,1.33,0,0,0-.4-1,1.3,1.3,0,0,0-1-.41,1.24,1.24,0,0,0-1,.41,1.28,1.28,0,0,0-.39,1,1.3,1.3,0,0,0,.39,1,1.29,1.29,0,0,0,1,.38Z"/></svg>